<?xml version="1.0" encoding="UTF-8" standalone="no"?>
<!DOCTYPE svg PUBLIC "-//W3C//DTD SVG 1.1//EN"
 "http://www.w3.org/Graphics/SVG/1.1/DTD/svg11.dtd">
<!-- Generated by graphviz version 2.43.0 (0)
 -->
<!-- Title: G Pages: 1 -->
<svg width="1148pt" height="1099pt"
 viewBox="0.00 0.00 1148.00 1099.00" xmlns="http://www.w3.org/2000/svg" xmlns:xlink="http://www.w3.org/1999/xlink">
<g id="graph0" class="graph" transform="scale(1 1) rotate(0) translate(4 1095)">
<title>G</title>
<polygon fill="#343541" stroke="transparent" points="-4,4 -4,-1095 1144,-1095 1144,4 -4,4"/>
<!-- Sede -->
<g id="node1" class="node">
<title>Sede</title>
<defs>
<linearGradient id="l_0" gradientUnits="userSpaceOnUse" x1="350" y1="-252.5" x2="350" y2="-124.5" >
<stop offset="0" style="stop-color:white;stop-opacity:1.;"/>
<stop offset="1" style="stop-color:lightgrey;stop-opacity:1.;"/>
</linearGradient>
</defs>
<path fill="url(#l_0)" stroke="grey" d="M445.5,-252.5C445.5,-252.5 254.5,-252.5 254.5,-252.5 248.5,-252.5 242.5,-246.5 242.5,-240.5 242.5,-240.5 242.5,-136.5 242.5,-136.5 242.5,-130.5 248.5,-124.5 254.5,-124.5 254.5,-124.5 445.5,-124.5 445.5,-124.5 451.5,-124.5 457.5,-130.5 457.5,-136.5 457.5,-136.5 457.5,-240.5 457.5,-240.5 457.5,-246.5 451.5,-252.5 445.5,-252.5"/>
<text text-anchor="middle" x="350" y="-237.3" font-family="Helvetica,sans-Serif" font-size="14.00" fill="#343541">Sede</text>
<text text-anchor="middle" x="350" y="-222.3" font-family="Helvetica,sans-Serif" font-size="14.00" fill="#343541">idSede (INT, PK)</text>
<text text-anchor="middle" x="350" y="-207.3" font-family="Helvetica,sans-Serif" font-size="14.00" fill="#343541">nombreSede (VARCHAR(45))</text>
<text text-anchor="middle" x="350" y="-192.3" font-family="Helvetica,sans-Serif" font-size="14.00" fill="#343541">localidad (VARCHAR(45))</text>
<text text-anchor="middle" x="350" y="-177.3" font-family="Helvetica,sans-Serif" font-size="14.00" fill="#343541">provincia (VARCHAR(45))</text>
<text text-anchor="middle" x="350" y="-162.3" font-family="Helvetica,sans-Serif" font-size="14.00" fill="#343541">calle (VARCHAR(45))</text>
<text text-anchor="middle" x="350" y="-147.3" font-family="Helvetica,sans-Serif" font-size="14.00" fill="#343541">numero (INT(3))</text>
<text text-anchor="middle" x="350" y="-132.3" font-family="Helvetica,sans-Serif" font-size="14.00" fill="#343541">codigoPostal (INT(5))</text>
</g>
<!-- Categoria -->
<g id="node2" class="node">
<title>Categoria</title>
<defs>
<linearGradient id="l_1" gradientUnits="userSpaceOnUse" x1="112" y1="-38" x2="112" y2="0" >
<stop offset="0" style="stop-color:white;stop-opacity:1.;"/>
<stop offset="1" style="stop-color:lightgrey;stop-opacity:1.;"/>
</linearGradient>
</defs>
<path fill="url(#l_1)" stroke="grey" d="M180.5,-38C180.5,-38 43.5,-38 43.5,-38 37.5,-38 31.5,-32 31.5,-26 31.5,-26 31.5,-12 31.5,-12 31.5,-6 37.5,0 43.5,0 43.5,0 180.5,0 180.5,0 186.5,0 192.5,-6 192.5,-12 192.5,-12 192.5,-26 192.5,-26 192.5,-32 186.5,-38 180.5,-38"/>
<text text-anchor="middle" x="112" y="-22.8" font-family="Helvetica,sans-Serif" font-size="14.00" fill="#343541">Categoria</text>
<text text-anchor="middle" x="112" y="-7.8" font-family="Helvetica,sans-Serif" font-size="14.00" fill="#343541">idCategoria (INT, PK)</text>
</g>
<!-- Grupo -->
<g id="node3" class="node">
<title>Grupo</title>
<defs>
<linearGradient id="l_2" gradientUnits="userSpaceOnUse" x1="112" y1="-222.5" x2="112" y2="-154.5" >
<stop offset="0" style="stop-color:white;stop-opacity:1.;"/>
<stop offset="1" style="stop-color:lightgrey;stop-opacity:1.;"/>
</linearGradient>
</defs>
<path fill="url(#l_2)" stroke="grey" d="M212,-222.5C212,-222.5 12,-222.5 12,-222.5 6,-222.5 0,-216.5 0,-210.5 0,-210.5 0,-166.5 0,-166.5 0,-160.5 6,-154.5 12,-154.5 12,-154.5 212,-154.5 212,-154.5 218,-154.5 224,-160.5 224,-166.5 224,-166.5 224,-210.5 224,-210.5 224,-216.5 218,-222.5 212,-222.5"/>
<text text-anchor="middle" x="112" y="-207.3" font-family="Helvetica,sans-Serif" font-size="14.00" fill="#343541">Grupo</text>
<text text-anchor="middle" x="112" y="-192.3" font-family="Helvetica,sans-Serif" font-size="14.00" fill="#343541">idGrupo (INT, PK)</text>
<text text-anchor="middle" x="112" y="-177.3" font-family="Helvetica,sans-Serif" font-size="14.00" fill="#343541">nombreGrupo (VARCHAR(45))</text>
<text text-anchor="middle" x="112" y="-162.3" font-family="Helvetica,sans-Serif" font-size="14.00" fill="#343541">idCategoria (INT)</text>
</g>
<!-- Grupo&#45;&gt;Categoria -->
<g id="edge1" class="edge">
<title>Grupo&#45;&gt;Categoria</title>
<path fill="none" stroke="#aaaaaa" d="M112,-154.41C112,-123.47 112,-77.75 112,-48.42"/>
<polygon fill="#aaaaaa" stroke="#aaaaaa" points="115.5,-48.04 112,-38.04 108.5,-48.04 115.5,-48.04"/>
<text text-anchor="middle" x="147" y="-59.4" font-family="Helvetica,sans-Serif" font-size="12.00" fill="#eeeeee">idCategoria</text>
</g>
<!-- Equipo -->
<g id="node4" class="node">
<title>Equipo</title>
<defs>
<linearGradient id="l_3" gradientUnits="userSpaceOnUse" x1="293" y1="-504.5" x2="293" y2="-391.5" >
<stop offset="0" style="stop-color:white;stop-opacity:1.;"/>
<stop offset="1" style="stop-color:lightgrey;stop-opacity:1.;"/>
</linearGradient>
</defs>
<path fill="url(#l_3)" stroke="grey" d="M395.5,-504.5C395.5,-504.5 190.5,-504.5 190.5,-504.5 184.5,-504.5 178.5,-498.5 178.5,-492.5 178.5,-492.5 178.5,-403.5 178.5,-403.5 178.5,-397.5 184.5,-391.5 190.5,-391.5 190.5,-391.5 395.5,-391.5 395.5,-391.5 401.5,-391.5 407.5,-397.5 407.5,-403.5 407.5,-403.5 407.5,-492.5 407.5,-492.5 407.5,-498.5 401.5,-504.5 395.5,-504.5"/>
<text text-anchor="middle" x="293" y="-489.3" font-family="Helvetica,sans-Serif" font-size="14.00" fill="#343541">Equipo</text>
<text text-anchor="middle" x="293" y="-474.3" font-family="Helvetica,sans-Serif" font-size="14.00" fill="#343541">idEquipo (INT, PK)</text>
<text text-anchor="middle" x="293" y="-459.3" font-family="Helvetica,sans-Serif" font-size="14.00" fill="#343541">nombreEquipo (VARCHAR(45))</text>
<text text-anchor="middle" x="293" y="-444.3" font-family="Helvetica,sans-Serif" font-size="14.00" fill="#343541">logo (LONGTEXT)</text>
<text text-anchor="middle" x="293" y="-429.3" font-family="Helvetica,sans-Serif" font-size="14.00" fill="#343541">idSede (INT)</text>
<text text-anchor="middle" x="293" y="-414.3" font-family="Helvetica,sans-Serif" font-size="14.00" fill="#343541">idGrupo (INT)</text>
<text text-anchor="middle" x="293" y="-399.3" font-family="Helvetica,sans-Serif" font-size="14.00" fill="#343541">idCapitan (INT)</text>
</g>
<!-- Equipo&#45;&gt;Sede -->
<g id="edge2" class="edge">
<title>Equipo&#45;&gt;Sede</title>
<path fill="none" stroke="#aaaaaa" d="M255.55,-391.26C243.07,-365.75 234.68,-335.21 245,-308 251.42,-291.09 261.47,-275.04 272.87,-260.53"/>
<polygon fill="#aaaaaa" stroke="#aaaaaa" points="275.71,-262.58 279.33,-252.63 270.29,-258.15 275.71,-262.58"/>
<text text-anchor="middle" x="265.5" y="-311.4" font-family="Helvetica,sans-Serif" font-size="12.00" fill="#eeeeee">idSede</text>
</g>
<!-- Equipo&#45;&gt;Grupo -->
<g id="edge3" class="edge">
<title>Equipo&#45;&gt;Grupo</title>
<path fill="none" stroke="#aaaaaa" d="M244.48,-391.33C226.61,-369.9 206.68,-344.85 190,-321 169.79,-292.11 149.55,-257.79 134.76,-231.46"/>
<polygon fill="#aaaaaa" stroke="#aaaaaa" points="137.69,-229.53 129.76,-222.5 131.57,-232.94 137.69,-229.53"/>
<text text-anchor="middle" x="214" y="-311.4" font-family="Helvetica,sans-Serif" font-size="12.00" fill="#eeeeee">idGrupo</text>
</g>
<!-- Usuario -->
<g id="node5" class="node">
<title>Usuario</title>
<defs>
<linearGradient id="l_4" gradientUnits="userSpaceOnUse" x1="648" y1="-290" x2="648" y2="-87" >
<stop offset="0" style="stop-color:white;stop-opacity:1.;"/>
<stop offset="1" style="stop-color:lightgrey;stop-opacity:1.;"/>
</linearGradient>
</defs>
<path fill="url(#l_4)" stroke="grey" d="M753,-290C753,-290 543,-290 543,-290 537,-290 531,-284 531,-278 531,-278 531,-99 531,-99 531,-93 537,-87 543,-87 543,-87 753,-87 753,-87 759,-87 765,-93 765,-99 765,-99 765,-278 765,-278 765,-284 759,-290 753,-290"/>
<text text-anchor="middle" x="648" y="-274.8" font-family="Helvetica,sans-Serif" font-size="14.00" fill="#343541">Usuario</text>
<text text-anchor="middle" x="648" y="-259.8" font-family="Helvetica,sans-Serif" font-size="14.00" fill="#343541">idUsuario (INT, PK)</text>
<text text-anchor="middle" x="648" y="-244.8" font-family="Helvetica,sans-Serif" font-size="14.00" fill="#343541">nombreUsuario (VARCHAR(45))</text>
<text text-anchor="middle" x="648" y="-229.8" font-family="Helvetica,sans-Serif" font-size="14.00" fill="#343541">password (VARCHAR(45))</text>
<text text-anchor="middle" x="648" y="-214.8" font-family="Helvetica,sans-Serif" font-size="14.00" fill="#343541">nombre (VARCHAR(45))</text>
<text text-anchor="middle" x="648" y="-199.8" font-family="Helvetica,sans-Serif" font-size="14.00" fill="#343541">apellidos (VARCHAR(45))</text>
<text text-anchor="middle" x="648" y="-184.8" font-family="Helvetica,sans-Serif" font-size="14.00" fill="#343541">email (VARCHAR(45))</text>
<text text-anchor="middle" x="648" y="-169.8" font-family="Helvetica,sans-Serif" font-size="14.00" fill="#343541">género (ENUM(&#39;M&#39;, &#39;F&#39;))</text>
<text text-anchor="middle" x="648" y="-154.8" font-family="Helvetica,sans-Serif" font-size="14.00" fill="#343541">telefono (INT(9))</text>
<text text-anchor="middle" x="648" y="-139.8" font-family="Helvetica,sans-Serif" font-size="14.00" fill="#343541">dni (VARCHAR(9))</text>
<text text-anchor="middle" x="648" y="-124.8" font-family="Helvetica,sans-Serif" font-size="14.00" fill="#343541">fechaNacimiento (DATE)</text>
<text text-anchor="middle" x="648" y="-109.8" font-family="Helvetica,sans-Serif" font-size="14.00" fill="#343541">fotoPerfil (LONGTEXT)</text>
<text text-anchor="middle" x="648" y="-94.8" font-family="Helvetica,sans-Serif" font-size="14.00" fill="#343541">idEquipo (INT)</text>
</g>
<!-- Equipo&#45;&gt;Usuario -->
<g id="edge4" class="edge">
<title>Equipo&#45;&gt;Usuario</title>
<path fill="none" stroke="#aaaaaa" d="M356.05,-391.17C386.67,-364.94 424.45,-333.83 460,-308 479.62,-293.75 500.93,-279.35 521.93,-265.75"/>
<polygon fill="#aaaaaa" stroke="#aaaaaa" points="524.07,-268.53 530.58,-260.17 520.28,-262.64 524.07,-268.53"/>
<text text-anchor="middle" x="488.5" y="-311.4" font-family="Helvetica,sans-Serif" font-size="12.00" fill="#eeeeee">idCapitan</text>
</g>
<!-- Usuario&#45;&gt;Equipo -->
<g id="edge5" class="edge">
<title>Usuario&#45;&gt;Equipo</title>
<path fill="none" stroke="#aaaaaa" d="M530.53,-260.89C509.83,-271.67 488.14,-281.88 467,-290 433.79,-302.76 418.43,-288.01 389,-308 361.75,-326.5 339.94,-355.52 324.03,-382.27"/>
<polygon fill="#aaaaaa" stroke="#aaaaaa" points="320.82,-380.83 318.86,-391.24 326.89,-384.32 320.82,-380.83"/>
<text text-anchor="middle" x="415" y="-311.4" font-family="Helvetica,sans-Serif" font-size="12.00" fill="#eeeeee">idEquipo</text>
</g>
<!-- Enfrentamiento -->
<g id="node6" class="node">
<title>Enfrentamiento</title>
<defs>
<linearGradient id="l_5" gradientUnits="userSpaceOnUse" x1="167" y1="-794" x2="167" y2="-606" >
<stop offset="0" style="stop-color:white;stop-opacity:1.;"/>
<stop offset="1" style="stop-color:lightgrey;stop-opacity:1.;"/>
</linearGradient>
</defs>
<path fill="url(#l_5)" stroke="grey" d="M281,-794C281,-794 53,-794 53,-794 47,-794 41,-788 41,-782 41,-782 41,-618 41,-618 41,-612 47,-606 53,-606 53,-606 281,-606 281,-606 287,-606 293,-612 293,-618 293,-618 293,-782 293,-782 293,-788 287,-794 281,-794"/>
<text text-anchor="middle" x="167" y="-778.8" font-family="Helvetica,sans-Serif" font-size="14.00" fill="#343541">Enfrentamiento</text>
<text text-anchor="middle" x="167" y="-763.8" font-family="Helvetica,sans-Serif" font-size="14.00" fill="#343541">idEnfrentamiento (INT, PK)</text>
<text text-anchor="middle" x="167" y="-748.8" font-family="Helvetica,sans-Serif" font-size="14.00" fill="#343541">idEquipoLocal (INT)</text>
<text text-anchor="middle" x="167" y="-733.8" font-family="Helvetica,sans-Serif" font-size="14.00" fill="#343541">idEquipoVisitante (INT)</text>
<text text-anchor="middle" x="167" y="-718.8" font-family="Helvetica,sans-Serif" font-size="14.00" fill="#343541">fecha (DATETIME)</text>
<text text-anchor="middle" x="167" y="-703.8" font-family="Helvetica,sans-Serif" font-size="14.00" fill="#343541">jugado (TINYINT)</text>
<text text-anchor="middle" x="167" y="-688.8" font-family="Helvetica,sans-Serif" font-size="14.00" fill="#343541">aplazado (TINYINT)</text>
<text text-anchor="middle" x="167" y="-673.8" font-family="Helvetica,sans-Serif" font-size="14.00" fill="#343541">confirmadoLocal (TINYINT)</text>
<text text-anchor="middle" x="167" y="-658.8" font-family="Helvetica,sans-Serif" font-size="14.00" fill="#343541">confirmadoVisitante (TINYINT)</text>
<text text-anchor="middle" x="167" y="-643.8" font-family="Helvetica,sans-Serif" font-size="14.00" fill="#343541">idGrupo (INT)</text>
<text text-anchor="middle" x="167" y="-628.8" font-family="Helvetica,sans-Serif" font-size="14.00" fill="#343541">partidosGanadosLocal (INT(1))</text>
<text text-anchor="middle" x="167" y="-613.8" font-family="Helvetica,sans-Serif" font-size="14.00" fill="#343541">partidosGanadosVisitante (INT(1))</text>
</g>
<!-- Enfrentamiento&#45;&gt;Grupo -->
<g id="edge6" class="edge">
<title>Enfrentamiento&#45;&gt;Grupo</title>
<path fill="none" stroke="#aaaaaa" d="M132.55,-605.62C127.86,-589.6 123.72,-572.97 121,-557 101.26,-441.21 105.25,-301.96 109.05,-232.83"/>
<polygon fill="#aaaaaa" stroke="#aaaaaa" points="112.55,-232.94 109.64,-222.75 105.57,-232.53 112.55,-232.94"/>
<text text-anchor="middle" x="145" y="-444.9" font-family="Helvetica,sans-Serif" font-size="12.00" fill="#eeeeee">idGrupo</text>
</g>
<!-- Enfrentamiento&#45;&gt;Equipo -->
<g id="edge7" class="edge">
<title>Enfrentamiento&#45;&gt;Equipo</title>
<path fill="none" stroke="#aaaaaa" d="M250.01,-605.68C253.64,-599.87 257.01,-593.95 260,-588 271.34,-565.4 278.89,-538.76 283.85,-514.88"/>
<polygon fill="#aaaaaa" stroke="#aaaaaa" points="287.33,-515.32 285.83,-504.84 280.47,-513.97 287.33,-515.32"/>
<text text-anchor="middle" x="306.5" y="-578.4" font-family="Helvetica,sans-Serif" font-size="12.00" fill="#eeeeee">idEquipoLocal</text>
</g>
<!-- Enfrentamiento&#45;&gt;Equipo -->
<g id="edge8" class="edge">
<title>Enfrentamiento&#45;&gt;Equipo</title>
<path fill="none" stroke="#aaaaaa" d="M145.87,-605.91C146.53,-595.23 148.68,-584.7 153,-575 160.11,-559.03 185.72,-534.41 213.12,-511.16"/>
<polygon fill="#aaaaaa" stroke="#aaaaaa" points="215.47,-513.75 220.88,-504.65 210.97,-508.39 215.47,-513.75"/>
<text text-anchor="middle" x="204.5" y="-578.4" font-family="Helvetica,sans-Serif" font-size="12.00" fill="#eeeeee">idEquipoVisitante</text>
</g>
<!-- Partido -->
<g id="node7" class="node">
<title>Partido</title>
<defs>
<linearGradient id="l_6" gradientUnits="userSpaceOnUse" x1="648" y1="-1091" x2="648" y2="-843" >
<stop offset="0" style="stop-color:white;stop-opacity:1.;"/>
<stop offset="1" style="stop-color:lightgrey;stop-opacity:1.;"/>
</linearGradient>
</defs>
<path fill="url(#l_6)" stroke="grey" d="M742,-1091C742,-1091 554,-1091 554,-1091 548,-1091 542,-1085 542,-1079 542,-1079 542,-855 542,-855 542,-849 548,-843 554,-843 554,-843 742,-843 742,-843 748,-843 754,-849 754,-855 754,-855 754,-1079 754,-1079 754,-1085 748,-1091 742,-1091"/>
<text text-anchor="middle" x="648" y="-1075.8" font-family="Helvetica,sans-Serif" font-size="14.00" fill="#343541">Partido</text>
<text text-anchor="middle" x="648" y="-1060.8" font-family="Helvetica,sans-Serif" font-size="14.00" fill="#343541">idPartido (INT, PK)</text>
<text text-anchor="middle" x="648" y="-1045.8" font-family="Helvetica,sans-Serif" font-size="14.00" fill="#343541">nivelPartido (INT(1))</text>
<text text-anchor="middle" x="648" y="-1030.8" font-family="Helvetica,sans-Serif" font-size="14.00" fill="#343541">idEnfrentamiento (INT)</text>
<text text-anchor="middle" x="648" y="-1015.8" font-family="Helvetica,sans-Serif" font-size="14.00" fill="#343541">idJugadorLocal1 (INT)</text>
<text text-anchor="middle" x="648" y="-1000.8" font-family="Helvetica,sans-Serif" font-size="14.00" fill="#343541">idJugadorLocal2 (INT)</text>
<text text-anchor="middle" x="648" y="-985.8" font-family="Helvetica,sans-Serif" font-size="14.00" fill="#343541">idJugadorVisitante1 (INT)</text>
<text text-anchor="middle" x="648" y="-970.8" font-family="Helvetica,sans-Serif" font-size="14.00" fill="#343541">idJugadorVisitante2 (INT)</text>
<text text-anchor="middle" x="648" y="-955.8" font-family="Helvetica,sans-Serif" font-size="14.00" fill="#343541">setsLocal (INT(1))</text>
<text text-anchor="middle" x="648" y="-940.8" font-family="Helvetica,sans-Serif" font-size="14.00" fill="#343541">setsVisitante (INT(1))</text>
<text text-anchor="middle" x="648" y="-925.8" font-family="Helvetica,sans-Serif" font-size="14.00" fill="#343541">juegosSet1Local (INT(1))</text>
<text text-anchor="middle" x="648" y="-910.8" font-family="Helvetica,sans-Serif" font-size="14.00" fill="#343541">juegosSet1Visitante (INT(1))</text>
<text text-anchor="middle" x="648" y="-895.8" font-family="Helvetica,sans-Serif" font-size="14.00" fill="#343541">juegosSet2Local (INT(1))</text>
<text text-anchor="middle" x="648" y="-880.8" font-family="Helvetica,sans-Serif" font-size="14.00" fill="#343541">juegosSet2Visitante (INT(1))</text>
<text text-anchor="middle" x="648" y="-865.8" font-family="Helvetica,sans-Serif" font-size="14.00" fill="#343541">juegosSet3Local (INT(1))</text>
<text text-anchor="middle" x="648" y="-850.8" font-family="Helvetica,sans-Serif" font-size="14.00" fill="#343541">juegosSet3Visitante (INT(1))</text>
</g>
<!-- Partido&#45;&gt;Usuario -->
<g id="edge10" class="edge">
<title>Partido&#45;&gt;Usuario</title>
<path fill="none" stroke="#aaaaaa" d="M598.69,-842.71C572.24,-769.91 542.4,-675.21 529,-588 513.66,-488.22 550.58,-378.56 587.24,-299.58"/>
<polygon fill="#aaaaaa" stroke="#aaaaaa" points="590.61,-300.64 591.71,-290.1 584.28,-297.66 590.61,-300.64"/>
<text text-anchor="middle" x="577.5" y="-578.4" font-family="Helvetica,sans-Serif" font-size="12.00" fill="#eeeeee">idJugadorLocal1</text>
</g>
<!-- Partido&#45;&gt;Usuario -->
<g id="edge11" class="edge">
<title>Partido&#45;&gt;Usuario</title>
<path fill="none" stroke="#aaaaaa" d="M648,-842.96C648,-693.56 648,-443.79 648,-300.19"/>
<polygon fill="#aaaaaa" stroke="#aaaaaa" points="651.5,-300.04 648,-290.04 644.5,-300.04 651.5,-300.04"/>
<text text-anchor="middle" x="696.5" y="-578.4" font-family="Helvetica,sans-Serif" font-size="12.00" fill="#eeeeee">idJugadorLocal2</text>
</g>
<!-- Partido&#45;&gt;Usuario -->
<g id="edge12" class="edge">
<title>Partido&#45;&gt;Usuario</title>
<path fill="none" stroke="#aaaaaa" d="M688.39,-842.84C710.24,-769.69 734.96,-674.58 746,-588 758.62,-489.02 728.1,-379.06 697.86,-299.77"/>
<polygon fill="#aaaaaa" stroke="#aaaaaa" points="701.06,-298.32 694.18,-290.26 694.53,-300.85 701.06,-298.32"/>
<text text-anchor="middle" x="805.5" y="-578.4" font-family="Helvetica,sans-Serif" font-size="12.00" fill="#eeeeee">idJugadorVisitante1</text>
</g>
<!-- Partido&#45;&gt;Usuario -->
<g id="edge13" class="edge">
<title>Partido&#45;&gt;Usuario</title>
<path fill="none" stroke="#aaaaaa" d="M742.16,-842.77C790.03,-772.28 843.23,-679.82 868,-588 896.46,-482.52 830.02,-374.74 762.88,-297.92"/>
<polygon fill="#aaaaaa" stroke="#aaaaaa" points="765.21,-295.27 755.96,-290.11 759.97,-299.92 765.21,-295.27"/>
<text text-anchor="middle" x="928.5" y="-578.4" font-family="Helvetica,sans-Serif" font-size="12.00" fill="#eeeeee">idJugadorVisitante2</text>
</g>
<!-- Partido&#45;&gt;Enfrentamiento -->
<g id="edge9" class="edge">
<title>Partido&#45;&gt;Enfrentamiento</title>
<path fill="none" stroke="#aaaaaa" d="M541.8,-916.17C473.9,-883.36 384.53,-838.4 308,-794 305.99,-792.83 303.97,-791.65 301.94,-790.45"/>
<polygon fill="#aaaaaa" stroke="#aaaaaa" points="303.39,-787.24 293.01,-785.12 299.8,-793.25 303.39,-787.24"/>
<text text-anchor="middle" x="414" y="-815.4" font-family="Helvetica,sans-Serif" font-size="12.00" fill="#eeeeee">idEnfrentamiento</text>
</g>
<!-- Clasificacion -->
<g id="node8" class="node">
<title>Clasificacion</title>
<defs>
<linearGradient id="l_7" gradientUnits="userSpaceOnUse" x1="407" y1="-794" x2="407" y2="-606" >
<stop offset="0" style="stop-color:white;stop-opacity:1.;"/>
<stop offset="1" style="stop-color:lightgrey;stop-opacity:1.;"/>
</linearGradient>
</defs>
<path fill="url(#l_7)" stroke="grey" d="M485,-794C485,-794 329,-794 329,-794 323,-794 317,-788 317,-782 317,-782 317,-618 317,-618 317,-612 323,-606 329,-606 329,-606 485,-606 485,-606 491,-606 497,-612 497,-618 497,-618 497,-782 497,-782 497,-788 491,-794 485,-794"/>
<text text-anchor="middle" x="407" y="-778.8" font-family="Helvetica,sans-Serif" font-size="14.00" fill="#343541">Clasificacion</text>
<text text-anchor="middle" x="407" y="-763.8" font-family="Helvetica,sans-Serif" font-size="14.00" fill="#343541">idClasificacion (INT, PK)</text>
<text text-anchor="middle" x="407" y="-748.8" font-family="Helvetica,sans-Serif" font-size="14.00" fill="#343541">idGrupo (INT)</text>
<text text-anchor="middle" x="407" y="-733.8" font-family="Helvetica,sans-Serif" font-size="14.00" fill="#343541">idEquipo (INT)</text>
<text text-anchor="middle" x="407" y="-718.8" font-family="Helvetica,sans-Serif" font-size="14.00" fill="#343541">puntos (INT)</text>
<text text-anchor="middle" x="407" y="-703.8" font-family="Helvetica,sans-Serif" font-size="14.00" fill="#343541">partidosJugados (INT)</text>
<text text-anchor="middle" x="407" y="-688.8" font-family="Helvetica,sans-Serif" font-size="14.00" fill="#343541">partidosGanados (INT)</text>
<text text-anchor="middle" x="407" y="-673.8" font-family="Helvetica,sans-Serif" font-size="14.00" fill="#343541">partidosPerdidos (INT)</text>
<text text-anchor="middle" x="407" y="-658.8" font-family="Helvetica,sans-Serif" font-size="14.00" fill="#343541">setsGanados (INT)</text>
<text text-anchor="middle" x="407" y="-643.8" font-family="Helvetica,sans-Serif" font-size="14.00" fill="#343541">setsPerdidos (INT)</text>
<text text-anchor="middle" x="407" y="-628.8" font-family="Helvetica,sans-Serif" font-size="14.00" fill="#343541">juegosGanados (INT)</text>
<text text-anchor="middle" x="407" y="-613.8" font-family="Helvetica,sans-Serif" font-size="14.00" fill="#343541">juegosPerdidos (INT)</text>
</g>
<!-- Clasificacion&#45;&gt;Grupo -->
<g id="edge14" class="edge">
<title>Clasificacion&#45;&gt;Grupo</title>
<path fill="none" stroke="#aaaaaa" d="M430.31,-605.74C453.19,-504.01 479.52,-349.99 441,-308 409.64,-273.81 275.92,-307.63 233,-290 200.77,-276.76 170.62,-251.76 148.47,-230.01"/>
<polygon fill="#aaaaaa" stroke="#aaaaaa" points="150.81,-227.39 141.27,-222.77 145.85,-232.33 150.81,-227.39"/>
<text text-anchor="middle" x="484" y="-444.9" font-family="Helvetica,sans-Serif" font-size="12.00" fill="#eeeeee">idGrupo</text>
</g>
<!-- Clasificacion&#45;&gt;Equipo -->
<g id="edge15" class="edge">
<title>Clasificacion&#45;&gt;Equipo</title>
<path fill="none" stroke="#aaaaaa" d="M378.49,-605.77C374.6,-595.27 370.41,-584.82 366,-575 356.75,-554.4 345.06,-532.84 333.77,-513.49"/>
<polygon fill="#aaaaaa" stroke="#aaaaaa" points="336.72,-511.6 328.62,-504.77 330.69,-515.16 336.72,-511.6"/>
<text text-anchor="middle" x="396" y="-578.4" font-family="Helvetica,sans-Serif" font-size="12.00" fill="#eeeeee">idEquipo</text>
</g>
<!-- EstadisticasJugador -->
<g id="node9" class="node">
<title>EstadisticasJugador</title>
<defs>
<linearGradient id="l_8" gradientUnits="userSpaceOnUse" x1="1038" y1="-557" x2="1038" y2="-339" >
<stop offset="0" style="stop-color:white;stop-opacity:1.;"/>
<stop offset="1" style="stop-color:lightgrey;stop-opacity:1.;"/>
</linearGradient>
</defs>
<path fill="url(#l_8)" stroke="grey" d="M1128,-557C1128,-557 948,-557 948,-557 942,-557 936,-551 936,-545 936,-545 936,-351 936,-351 936,-345 942,-339 948,-339 948,-339 1128,-339 1128,-339 1134,-339 1140,-345 1140,-351 1140,-351 1140,-545 1140,-545 1140,-551 1134,-557 1128,-557"/>
<text text-anchor="middle" x="1038" y="-541.8" font-family="Helvetica,sans-Serif" font-size="14.00" fill="#343541">EstadisticasJugador</text>
<text text-anchor="middle" x="1038" y="-526.8" font-family="Helvetica,sans-Serif" font-size="14.00" fill="#343541">idEstadistica (INT, PK)</text>
<text text-anchor="middle" x="1038" y="-511.8" font-family="Helvetica,sans-Serif" font-size="14.00" fill="#343541">idUsuario (INT)</text>
<text text-anchor="middle" x="1038" y="-496.8" font-family="Helvetica,sans-Serif" font-size="14.00" fill="#343541">partidosJugados (INT)</text>
<text text-anchor="middle" x="1038" y="-481.8" font-family="Helvetica,sans-Serif" font-size="14.00" fill="#343541">partidosGanados (INT)</text>
<text text-anchor="middle" x="1038" y="-466.8" font-family="Helvetica,sans-Serif" font-size="14.00" fill="#343541">partidosPerdidos (INT)</text>
<text text-anchor="middle" x="1038" y="-451.8" font-family="Helvetica,sans-Serif" font-size="14.00" fill="#343541">setsGanados (INT)</text>
<text text-anchor="middle" x="1038" y="-436.8" font-family="Helvetica,sans-Serif" font-size="14.00" fill="#343541">setsPerdidos (INT)</text>
<text text-anchor="middle" x="1038" y="-421.8" font-family="Helvetica,sans-Serif" font-size="14.00" fill="#343541">juegosGanados (INT)</text>
<text text-anchor="middle" x="1038" y="-406.8" font-family="Helvetica,sans-Serif" font-size="14.00" fill="#343541">juegosPerdidos (INT)</text>
<text text-anchor="middle" x="1038" y="-391.8" font-family="Helvetica,sans-Serif" font-size="14.00" fill="#343541">partidosGanados2Set (INT)</text>
<text text-anchor="middle" x="1038" y="-376.8" font-family="Helvetica,sans-Serif" font-size="14.00" fill="#343541">partidosGanados3Set (INT)</text>
<text text-anchor="middle" x="1038" y="-361.8" font-family="Helvetica,sans-Serif" font-size="14.00" fill="#343541">partidosPerdidos2Set (INT)</text>
<text text-anchor="middle" x="1038" y="-346.8" font-family="Helvetica,sans-Serif" font-size="14.00" fill="#343541">partidosPerdidos3Set (INT)</text>
</g>
<!-- EstadisticasJugador&#45;&gt;Usuario -->
<g id="edge16" class="edge">
<title>EstadisticasJugador&#45;&gt;Usuario</title>
<path fill="none" stroke="#aaaaaa" d="M956.64,-338.71C945.72,-327.56 934.09,-317.03 922,-308 877.93,-275.06 823.29,-249.07 774.43,-229.92"/>
<polygon fill="#aaaaaa" stroke="#aaaaaa" points="775.65,-226.64 765.06,-226.3 773.13,-233.17 775.65,-226.64"/>
<text text-anchor="middle" x="965.5" y="-311.4" font-family="Helvetica,sans-Serif" font-size="12.00" fill="#eeeeee">idUsuario</text>
</g>
</g>
</svg>
